# xmcd CD database file
#
# Track frame offsets:
#	150
#	22395
#	45465
#	62967
#	82140
#	108660
#	139227
#	153287
#	174255
#	196660
#
# Disc length: 2829 seconds
#
# Revision: 0
# Processed by: cddbd v1.5.1PL0 Copyright (c) Steve Scherf et al.
# Submitted via: CDex 1.51
#
DISCID=880b0b0a
DTITLE=Bobby Lyle Trio and Cristi Black - With Standard
DYEAR=1988
DGENRE=Jazz
TTITLE0=Cherokee
TTITLE1=Giant Steps
TTITLE2=All of Me
TTITLE3=For All We Know
TTITLE4=Invitation
TTITLE5=In The Still of The Night
TTITLE6=Just in Time
TTITLE7=Someone to Watch Over Me
TTITLE8=What's New
TTITLE9=Round Midnight
EXTD=YEAR: 1988
EXTT0=
EXTT1=
EXTT2=
EXTT3=
EXTT4=
EXTT5=
EXTT6=
EXTT7=
EXTT8=
EXTT9=
PLAYORDER=
